<svg xmlns="http://www.w3.org/2000/svg" width="285" height="126" viewBox="0 0 285 126" version="1.1">
	<path d="M 2.200 2.200 C 0.467 3.933, 0.467 122.067, 2.200 123.800 C 3.944 125.544, 281.056 125.544, 282.800 123.800 C 284.533 122.067, 284.533 3.933, 282.800 2.200 C 281.056 0.456, 3.944 0.456, 2.200 2.200 M 5 63 L 5 122 142.500 122 L 280 122 280 63 L 280 4 142.500 4 L 5 4 5 63 M 7.642 11.746 C 6.824 16.695, 6.819 68.404, 7.636 74.364 L 8.273 79.007 142.886 78.754 L 277.500 78.500 277.500 43.500 L 277.500 8.500 142.881 8.246 L 8.263 7.993 7.642 11.746 M 37.653 19.437 C 27.292 24.513, 22 32.946, 22 44.381 C 22 61, 35.392 73.240, 51.935 71.740 C 59.277 71.074, 64.736 68.243, 69.824 62.462 C 85.679 44.451, 73.075 16.961, 49 17.041 C 44.218 17.057, 41.219 17.690, 37.653 19.437 M 224.435 18.890 C 205.845 27.334, 201.937 52.951, 217.345 65.371 C 223.563 70.383, 229.763 72.373, 237.282 71.770 C 265.006 69.544, 272.654 33.036, 248.073 20.250 C 242.828 17.521, 240.756 17.004, 235.163 17.022 C 230.860 17.036, 227.060 17.698, 224.435 18.890 M 145.514 19.977 C 145.182 20.515, 145.605 24.321, 146.455 28.435 C 148.408 37.892, 148.400 40.632, 146.418 41.393 C 143.355 42.568, 118.463 42.063, 117.200 40.800 C 116.267 39.867, 115.733 39.867, 114.800 40.800 C 114.140 41.460, 111.655 42, 109.279 42 C 105.654 42, 104.776 41.602, 103.832 39.531 C 102.031 35.579, 101 37.592, 101 45.059 C 101 52.430, 101.924 53.572, 104.592 49.500 C 106.514 46.566, 112.190 46.044, 115.670 48.482 C 117.459 49.735, 117.962 49.751, 118.927 48.588 C 119.784 47.555, 123.401 47.193, 133.490 47.132 C 140.873 47.087, 147.171 47.467, 147.486 47.977 C 147.800 48.486, 147.145 53.383, 146.029 58.858 C 144.913 64.334, 144 69.081, 144 69.407 C 144 70.420, 181.839 70.069, 182.469 69.051 C 182.791 68.529, 182.143 65.393, 181.028 62.082 C 179.912 58.772, 179.024 53.911, 179.052 51.282 C 179.103 46.643, 179.152 46.567, 180.674 48.750 C 183.600 52.944, 185 51.588, 185 44.559 C 185 41.016, 184.547 37.838, 183.992 37.495 C 182.867 36.800, 180 39.265, 180 40.929 C 180 41.518, 179.550 42, 179 42 C 177.088 42, 178.013 33.515, 180.510 28.151 C 183.417 21.905, 183.574 20.434, 181.418 19.607 C 178.743 18.581, 146.170 18.917, 145.514 19.977 M 8 85.448 C 8 87.696, 8.429 87.920, 13.250 88.198 L 18.500 88.500 18.777 102.750 L 19.055 117 21.527 117 L 24 117 24 102.500 L 24 88 29.500 88 C 34.700 88, 35 87.864, 35 85.500 L 35 83 21.500 83 L 8 83 8 85.448 M 43.356 84.750 C 42.719 86.668, 35.861 104.696, 32.894 112.250 L 31.029 117 33.881 117 C 36.360 117, 37.005 116.346, 38.811 112 L 40.889 107 47.031 107 L 53.172 107 55.284 112 C 57.131 116.370, 57.764 117, 60.305 117 C 62.655 117, 63.090 116.664, 62.567 115.250 C 62.211 114.287, 59.141 106.638, 55.746 98.250 C 49.836 83.653, 49.451 83, 46.755 83 C 44.959 83, 43.726 83.635, 43.356 84.750 M 66 100 L 66 117 68.500 117 C 70.905 117, 71 116.758, 71 110.632 L 71 104.263 78.682 103.770 C 85.752 103.316, 86.588 103.026, 89.182 100.123 C 92.540 96.364, 92.861 91.924, 90.100 87.396 C 87.871 83.741, 85.136 83, 73.875 83 L 66 83 66 100 M 97 100 L 97 117 110.070 117 C 123.051 117, 123.137 116.985, 122.820 114.750 C 122.515 112.606, 122.018 112.487, 112.250 112.215 L 102 111.930 102 106.965 L 102 102 111.570 102 C 120.922 102, 121.132 101.949, 120.820 99.750 C 120.518 97.626, 119.980 97.484, 111.250 97.212 L 102 96.925 102 92.462 L 102 88 112 88 L 122 88 122 85.500 L 122 83 109.500 83 L 97 83 97 100 M 124.985 84.250 C 124.977 84.938, 126.848 92.588, 129.144 101.250 C 133.219 116.624, 133.382 117, 135.997 117 C 138.564 117, 138.812 116.510, 141.951 105.250 C 143.752 98.787, 145.591 93.107, 146.036 92.627 C 146.482 92.147, 147.335 93.497, 147.932 95.627 C 148.529 97.757, 150.086 103.325, 151.392 108 C 153.512 115.595, 154.035 116.533, 156.297 116.808 C 158.046 117.021, 158.994 116.558, 159.366 115.308 C 161.322 108.726, 168 84.206, 168 83.604 C 168 83.199, 166.786 83.010, 165.303 83.184 C 162.740 83.484, 162.477 84.048, 160.053 94.440 C 158.649 100.456, 157.054 105.324, 156.508 105.256 C 155.963 105.188, 154.163 100.154, 152.508 94.070 C 149.505 83.027, 149.495 83.008, 146.412 83.004 L 143.324 83 140 95 C 138.172 101.600, 136.383 107, 136.024 107 C 135.665 107, 134.135 101.600, 132.623 95 C 130.035 83.701, 129.732 83, 127.437 83 C 126.097 83, 124.993 83.563, 124.985 84.250 M 177.192 85.024 C 173.115 87.510, 170.052 93.924, 170.022 100.038 C 169.970 110.827, 178.691 119.023, 188.636 117.532 C 195.163 116.553, 200.706 111.208, 201.876 104.764 C 203.475 95.965, 200.843 88.704, 194.696 84.956 C 190.308 82.281, 181.637 82.314, 177.192 85.024 M 207 100 L 207 117 209.956 117 L 212.912 117 213.206 109.750 L 213.500 102.500 216.816 102.655 C 220.831 102.842, 223.228 104.850, 227.677 111.750 C 230.554 116.212, 231.523 117, 234.138 117 C 237.845 117, 237.698 116.390, 231.934 107.903 C 229.672 104.572, 227.974 101.716, 228.160 101.558 C 228.347 101.400, 229.476 100.763, 230.670 100.143 C 231.863 99.523, 233.362 97.434, 233.999 95.502 C 234.977 92.540, 234.871 91.403, 233.330 88.268 C 231.102 83.738, 229.470 83.230, 216.750 83.100 L 207 83 207 100 M 240.465 84.231 C 240.179 84.975, 240.070 92.540, 240.223 101.042 L 240.500 116.500 243.217 116.813 L 245.933 117.126 246.217 105.813 L 246.500 94.500 250.500 105.783 C 254.216 116.263, 254.674 117.045, 256.949 116.783 C 259.095 116.535, 259.839 115.230, 262.948 106.250 C 264.901 100.612, 266.836 96, 267.249 96 C 267.662 96, 268 100.725, 268 106.500 L 268 117 270.500 117 L 273 117 273 100 L 273 83 269.740 83 L 266.480 83 262.119 95.500 C 259.721 102.375, 257.464 108, 257.104 108 C 256.744 108, 254.613 102.487, 252.367 95.750 L 248.285 83.500 244.634 83.189 C 242.254 82.986, 240.803 83.349, 240.465 84.231 M 182.096 88.265 C 177.914 90.414, 175.500 94.680, 175.500 99.922 C 175.500 107.962, 179.825 113, 186.728 113 C 197.825 113, 200.984 92.816, 190.568 88.464 C 186.331 86.694, 185.205 86.667, 182.096 88.265 M 71.402 89.395 C 71.108 90.162, 71.009 92.524, 71.183 94.645 L 71.500 98.500 77.708 98.492 C 84.195 98.484, 85.343 97.933, 86.439 94.301 C 87.578 90.528, 83.979 88, 77.469 88 C 73.660 88, 71.771 88.434, 71.402 89.395 M 213 93 L 213 98 218.777 98 C 225.353 98, 229 96.089, 229 92.643 C 229 88.974, 227.070 88, 219.800 88 L 213 88 213 93 M 44.693 95.750 C 43.756 98.362, 42.992 100.838, 42.995 101.250 C 42.998 101.662, 44.800 102, 47 102 C 49.200 102, 51.002 101.662, 51.005 101.250 C 51.015 99.763, 47.591 91, 47 91 C 46.667 91, 45.629 93.138, 44.693 95.750" stroke="none" fill="#000000" fill-rule="evenodd"/>
</svg>